<?xml version="1.0" encoding="UTF-8"?>
<svg width="130px" height="126px" viewBox="0 0 130 126" version="1.1" xmlns="http://www.w3.org/2000/svg" xmlns:xlink="http://www.w3.org/1999/xlink">
    <title>4B037B93-1E45-4539-925E-CFD94FBC2FF4@1x</title>
    <g id="Empty-states" stroke="none" stroke-width="1" fill="none" fill-rule="evenodd">
        <g id="No-item-match-your-search-querry" transform="translate(-817.000000, -281.000000)" fill-rule="nonzero">
            <g id="No-item-match-your-search-querry---Illustration" transform="translate(817.000000, 281.000000)">
                <path d="M82.5292281,28.3357334 L47.499817,28.3357334 C45.8377503,28.3377409 44.4908832,29.67511 44.4888614,31.3254558 L44.4888614,108.629713 L44.0874007,108.751305 L35.4941214,111.364322 C34.6461352,111.621058 33.7489266,111.147514 33.4888772,110.30596 L7.92780531,27.4009468 C7.66878085,26.5588795 8.14585716,25.6676687 8.99369563,25.4097917 L22.2359224,21.3836321 L60.6256061,9.71574198 L73.8677326,5.68958242 C74.2747357,5.5652034 74.7148477,5.60666705 75.0910303,5.80483126 C75.467213,6.00299546 75.7485739,6.34158688 75.8730772,6.74595102 L82.4068107,27.9371037 L82.5292281,28.3357334 Z" id="Path" fill="#F2F2F2"></path>
                <path d="M90.1730607,27.9371037 L82.2984082,2.39690143 C82.0338128,1.53746286 81.4360814,0.81766952 80.6368132,0.395994223 C79.8375451,-0.0256810728 78.9022701,-0.114666213 78.0369024,0.148630153 L59.4191604,5.80717817 L21.0315382,17.4770654 L2.41379618,23.1376066 C0.612952558,23.6866836 -0.400126419,25.5798986 0.149501374,27.3690604 L27.0634457,114.655004 C27.5036341,116.078852 28.8273719,117.0513 30.3273738,117.052762 C30.6655686,117.052762 31.0018604,117.002522 31.3249475,116.903275 L44.0874007,113.024609 L44.4888614,112.901033 L44.4888614,112.484465 L44.0874007,112.606047 L31.2065487,116.522584 C29.6170177,117.003702 27.9352047,116.116568 27.4468689,114.539401 L0.534981973,27.2514647 C0.300288704,26.4934373 0.37896191,25.6738399 0.753645429,24.9734845 C1.12832895,24.2731291 1.76823413,23.7495657 2.53219097,23.5182979 L21.149933,17.8577568 L59.5376576,6.18986663 L78.1553996,0.529325464 C78.4423053,0.442384142 78.7405834,0.398055256 79.0405523,0.397777677 C80.3620149,0.400723884 81.5274202,1.25808978 81.9150755,2.51250802 L89.7535563,27.9371077 L89.8780333,28.3357374 L90.2955685,28.3357374 L90.1730607,27.9371037 Z" id="Path" fill="#3F3D56"></path>
                <path d="M24.6255192,25.4749636 C23.8313321,25.4744019 23.1303122,24.9597649 22.8969637,24.2059859 L20.3114822,15.8204562 C20.171167,15.3655445 20.2186261,14.8739152 20.4434159,14.4537533 C20.6682057,14.0335914 21.0519065,13.7193257 21.5100834,13.5801117 L56.8263844,2.84426357 C57.7803178,2.555222 58.7898271,3.08765869 59.0827383,4.03431262 L61.6682198,12.41994 C61.9591214,13.3671278 61.4229727,14.3693883 60.4697189,14.6603822 L25.1533196,25.3962303 C24.9822982,25.4483468 24.8044135,25.4749636 24.6255192,25.4749636 L24.6255192,25.4749636 Z" id="Path" fill="#877FC9"></path>
                <ellipse id="Oval" fill="#877FC9" cx="38.1693173" cy="4.97221447" rx="4.01460745" ry="3.9862966"></ellipse>
                <ellipse id="Oval" fill="#FFFFFF" cx="38.1693173" cy="4.97221447" rx="2.54217389" ry="2.52424658"></ellipse>
                <path d="M120.967179,116.034259 L53.1203136,116.034259 C52.1784507,116.033181 51.4151906,115.275303 51.4141054,114.340082 L51.4141054,33.6175764 C51.4151574,32.6823418 52.1784369,31.9244449 53.1203136,31.9234003 L120.967179,31.9234003 C121.909042,31.9244789 122.672301,32.6823559 122.673388,33.6175764 L122.673388,114.340082 C122.672267,115.275289 121.909028,116.033146 120.967179,116.034259 Z" id="Path" fill="#E6E6E6"></path>
                <path d="M89.7535604,27.9371037 L47.499817,27.9371037 C45.6162967,27.9397505 44.0900663,29.4552181 44.0874007,31.3254558 L44.0874007,112.606043 L44.4888614,112.484461 L44.4888614,31.3254558 C44.4908832,29.67511 45.8377503,28.3377409 47.499817,28.3357334 L89.8780373,28.3357334 L89.7535604,27.9371037 Z M126.587584,27.9371037 L47.499817,27.9371037 C45.6162967,27.9397505 44.0900663,29.4552181 44.0874007,31.3254558 L44.0874007,122.611648 C44.0900652,124.481886 45.6162963,125.997354 47.499817,126 L126.587584,126 C128.471104,125.997354 129.997335,124.481886 130,122.611648 L130,31.3254558 C129.997334,29.4552181 128.471104,27.9397505 126.587584,27.9371037 L126.587584,27.9371037 Z M129.598539,122.611648 C129.596517,124.261994 128.24965,125.599363 126.587584,125.60137 L47.499817,125.60137 C45.8377503,125.599363 44.4908832,124.261994 44.4888614,122.611648 L44.4888614,31.3254558 C44.4908832,29.67511 45.8377503,28.3377409 47.499817,28.3357334 L126.587584,28.3357334 C128.24965,28.3377409 129.596517,29.67511 129.598539,31.3254558 L129.598539,122.611648 Z" id="Shape" fill="#3F3D56"></path>
                <path d="M105.510941,36.7069562 L68.5765523,36.7069562 C67.5792748,36.7058413 66.7711017,35.9033675 66.7699789,34.9131228 L66.7699789,26.1432703 C66.7711028,25.153026 67.5792753,24.3505528 68.5765523,24.3494368 L105.510941,24.3494368 C106.508218,24.3505528 107.31639,25.153026 107.317514,26.1432703 L107.317514,34.9131228 C107.316391,35.9033675 106.508218,36.7058413 105.510941,36.7069562 Z" id="Path" fill="#877FC9"></path>
                <ellipse id="Oval" fill="#877FC9" cx="87.0437003" cy="20.9610867" rx="4.01460745" ry="3.9862966"></ellipse>
                <ellipse id="Oval" fill="#FFFFFF" cx="87.0437003" cy="20.9610867" rx="2.4452713" ry="2.42802735"></ellipse>
            </g>
        </g>
    </g>
</svg>