<?xml version="1.0" encoding="UTF-8"?>
<svg width="57px" height="74px" viewBox="0 0 57 74" version="1.1" xmlns="http://www.w3.org/2000/svg" xmlns:xlink="http://www.w3.org/1999/xlink">
    <title>Combined Shape</title>
    <g id="Redesign---Landing-Page" stroke="none" stroke-width="1" fill="none" fill-rule="evenodd">
        <path d="M18.6212574,21.1699422 L18.6212574,25.6699422 L9.53402787,25.6699422 C6.98354621,25.6699422 4.90255821,27.6800835 4.78891573,30.2025142 L4.78402787,30.4199422 L4.78402787,63.893215 C4.78402787,66.4436967 6.79416916,68.5246847 9.31659987,68.6383272 L9.53402787,68.643215 L47.2135653,68.643215 C49.764047,68.643215 51.845035,66.6330737 51.9586775,64.110643 L51.9635653,63.893215 L51.9635653,30.4199422 C51.9635653,27.8694606 49.953424,25.7884726 47.4309933,25.6748301 L47.2135653,25.6699422 L38,25.6699422 L38,21.1699422 L47.2135653,21.1699422 C52.2325741,21.1699422 56.3179565,25.1672719 56.4597585,30.151977 L56.4635653,30.4199422 L56.4635653,63.893215 C56.4635653,68.9122238 52.4662357,72.9976062 47.4815305,73.1394082 L47.2135653,73.143215 L9.53402787,73.143215 C4.51501909,73.143215 0.429636671,69.1458854 0.287834705,64.1611802 L0.284027868,63.893215 L0.284027868,30.4199422 C0.284027868,25.4009334 4.2813575,21.315551 9.26606268,21.1737491 L9.53402787,21.1699422 L18.6212574,21.1699422 Z M30.04429,1.04334409 L30.1892236,1.1814084 L41.3197155,12.7152623 C42.1826205,13.6094383 42.1572703,15.033834 41.2630942,15.896739 C40.4114979,16.7185532 39.0789768,16.7346938 38.2085914,15.9619445 L38.0816175,15.8401176 L30.7490279,8.2412769 L30.75,45.5 C30.75,46.7426407 29.7426407,47.75 28.5,47.75 C27.309136,47.75 26.3343551,46.8248384 26.2551908,45.6540488 L26.25,45.5 L26.2490279,8.0462769 L18.3022948,15.880237 C17.4593783,16.7109516 16.1271004,16.7410888 15.2486455,15.9775252 L15.1203989,15.8570388 C14.2896843,15.0141223 14.259547,13.6818443 15.0231106,12.8033895 L15.143597,12.6751428 L26.8486747,1.13950591 C27.731055,0.269898791 29.126872,0.240255237 30.04429,1.04334409 Z" id="Combined-Shape" fill="#4693FE" fill-rule="nonzero"></path>
    </g>
</svg>